%FSLAX35Y35*%
%MOIN*%
%TF.FileFunction,Copper,L1,Top*%
%ADD10C,0.00591*%
%ADD11C,0.00512*%
%ADD12C,0.00787*%
%ADD13C,0.01000*%
%ADD14C,0.01024*%
%ADD15C,0.01181*%
%ADD16C,0.03937*%
%ADD17C,0.12598*%
%AMR_18*21,1,0.05000,0.09843,0,0,0.000*%
%ADD18R_18*%
%AMR_19*21,1,0.05000,0.09843,0,0,180.000*%
%ADD19R_19*%
%AMOCT_20*4,1,8,0.031496,0.015748,0.015748,0.031496,-0.015748,0.031496,-0.031496,0.015748,-0.031496,-0.015748,-0.015748,-0.031496,0.015748,-0.031496,0.031496,-0.015748,0.031496,0.015748,0.000*%
%ADD20OCT_20*%
%AMOCT_21*4,1,8,0.031496,0.015748,0.015748,0.031496,-0.015748,0.031496,-0.031496,0.015748,-0.031496,-0.015748,-0.015748,-0.031496,0.015748,-0.031496,0.031496,-0.015748,0.031496,0.015748,90.000*%
%ADD21OCT_21*%
%AMOCT_22*4,1,8,0.031496,0.015748,0.015748,0.031496,-0.015748,0.031496,-0.031496,0.015748,-0.031496,-0.015748,-0.015748,-0.031496,0.015748,-0.031496,0.031496,-0.015748,0.031496,0.015748,180.000*%
%ADD22OCT_22*%
%AMOCT_23*4,1,8,0.035433,0.017717,0.017717,0.035433,-0.017717,0.035433,-0.035433,0.017717,-0.035433,-0.017717,-0.017717,-0.035433,0.017717,-0.035433,0.035433,-0.017717,0.035433,0.017717,270.000*%
%ADD23OCT_23*%
%ADD24O,0.05000X0.09843*%
%ADD25O,0.05000X0.09843*%
%AMRR_26*21,1,0.06299,0.05039,0,0,0.000*21,1,0.05039,0.06299,0,0,0.000*1,1,0.01260,0.02520,0.02520*1,1,0.01260,-0.02520,-0.02520*1,1,0.01260,0.02520,-0.02520*1,1,0.01260,-0.02520,0.02520*%
%ADD26RR_26*%
%AMRR_27*21,1,0.06299,0.05039,0,0,90.000*21,1,0.05039,0.06299,0,0,90.000*1,1,0.01260,-0.02520,0.02520*1,1,0.01260,0.02520,-0.02520*1,1,0.01260,0.02520,0.02520*1,1,0.01260,-0.02520,-0.02520*%
%ADD27RR_27*%
%AMRR_28*21,1,0.06299,0.05039,0,0,180.000*21,1,0.05039,0.06299,0,0,180.000*1,1,0.01260,-0.02520,-0.02520*1,1,0.01260,0.02520,0.02520*1,1,0.01260,-0.02520,0.02520*1,1,0.01260,0.02520,-0.02520*%
%ADD28RR_28*%
G54D12*
X49822Y151496D02*
X46318Y155000D01*
X112500Y145000D02*
X106181Y151318D01*
X110000Y200000D02*
X106181Y196181D01*
X72500Y111222D02*
X62596Y101318D01*
X52500Y95000D02*
X58818Y101318D01*
X52500Y70000D02*
X47500Y65000D01*
X32500Y110288D02*
X17788Y125000D01*
X18818Y145000D02*
X28818Y155000D01*
X106181Y151496D02*
X106181Y196181D01*
X17788Y125000D02*
X15000Y125000D01*
X106181Y151496D02*
X49822Y151496D01*
X62596Y101318D02*
X58818Y101318D01*
X106181Y151496D02*
X106181Y151318D01*
X100000Y200000D02*
X110000Y200000D01*
X72500Y125000D02*
X72500Y111222D01*
X52500Y95000D02*
X52500Y70000D01*
X42500Y95000D02*
X52500Y95000D01*
X32500Y95000D02*
X42500Y95000D01*
X32500Y95000D02*
X32500Y110288D01*
X15000Y145000D02*
X18818Y145000D01*
X15000Y135000D02*
X15000Y145000D01*
X15000Y125000D02*
X15000Y135000D01*
X127500Y97742D02*
X124090Y101151D01*
X92500Y95000D02*
X98651Y101151D01*
X124090Y101151D02*
X98651Y101151D01*
X127500Y65000D02*
X127500Y97742D01*
X102500Y82499D02*
X107499Y77499D01*
X117500Y65000D02*
X117500Y75000D01*
X102500Y95000D02*
X102500Y82499D01*
X112500Y70000D02*
X107500Y65000D01*
X112500Y95000D02*
X112500Y70000D01*
X119086Y58862D02*
X122500Y62275D01*
X97500Y65000D02*
X103637Y58862D01*
X119086Y58862D02*
X103637Y58862D01*
X122500Y95000D02*
X122500Y62275D01*
X42500Y145000D02*
X58818Y128681D01*
X58818Y127106D02*
X58818Y107106D01*
X58818Y127106D02*
X58818Y128681D01*
X52500Y145000D02*
X68818Y128681D01*
X68818Y112106D02*
X68818Y128681D01*
X78818Y120925D02*
X84744Y114999D01*
X62500Y145000D02*
X78818Y128681D01*
X92499Y114999D02*
X84744Y114999D01*
X78818Y126003D02*
X78818Y120925D01*
X78818Y126003D02*
X78818Y128681D01*
X72500Y145000D02*
X81496Y136003D01*
X96318Y136003D02*
X81496Y136003D01*
X102500Y134999D02*
X92500Y145000D01*
X102500Y125000D02*
X102500Y134999D01*
X132500Y95000D02*
X132500Y84999D01*
X77500Y97743D02*
X82482Y102726D01*
X142500Y95000D02*
X134773Y102726D01*
X125973Y102726D02*
X82482Y102726D01*
X125973Y102726D02*
X134773Y102726D01*
X77500Y65000D02*
X77500Y97743D01*
X220000Y37500D02*
X220000Y65000D01*
X210000Y37500D02*
X210000Y52500D01*
X200000Y37500D02*
X184346Y21846D01*
X77500Y35000D02*
X90653Y21846D01*
X184346Y21846D02*
X90653Y21846D01*
X200000Y37500D02*
X200000Y65000D01*
X117500Y35000D02*
X117500Y45000D01*
X230000Y37500D02*
X230000Y27499D01*
X230000Y37500D02*
X230000Y65000D01*
X107500Y35000D02*
X107500Y24999D01*
X190000Y37500D02*
X190000Y65000D01*
X240000Y180000D02*
X240000Y165000D01*
X240000Y152500D02*
X240000Y165000D01*
X230000Y152500D02*
X230000Y180000D01*
X220000Y152500D02*
X220000Y180000D01*
X210000Y152500D02*
X210000Y169999D01*
X200000Y152500D02*
X200000Y180000D01*
X190000Y152500D02*
X190000Y180000D01*
X113818Y28897D02*
X113425Y28503D01*
X117499Y28897D02*
X117543Y28853D01*
X180000Y37500D02*
X171353Y28853D01*
X112500Y191850D02*
X113149Y192500D01*
X117499Y28897D02*
X113818Y28897D01*
X117543Y28853D02*
X171353Y28853D01*
X180000Y152500D02*
X180000Y180000D01*
X180000Y37500D02*
X180000Y65000D01*
X112500Y175000D02*
X112500Y191850D01*
X20000Y157500D02*
X22500Y154999D01*
X20000Y200000D02*
X20000Y157500D01*
X37499Y192500D02*
X30000Y200000D01*
X42500Y125000D02*
X37499Y130000D01*
X37499Y192500D01*
X116318Y121065D02*
X114083Y118830D01*
X120000Y200000D02*
X116299Y196299D01*
X82500Y125000D02*
X88669Y118830D01*
X30000Y80000D02*
X28425Y81574D01*
X116318Y121065D02*
X116299Y121065D01*
X114083Y118830D02*
X88669Y118830D01*
X28425Y109814D02*
X28425Y81574D01*
X116299Y196299D02*
X116299Y121065D01*
X39999Y70222D02*
X39999Y61850D01*
X22480Y48149D02*
X22480Y48149D01*
X49940Y10000D02*
X22480Y37460D01*
X15000Y105000D02*
X22480Y97519D01*
X22480Y48149D02*
X22480Y37460D01*
X22480Y48149D02*
X22480Y97519D01*
X50000Y10000D02*
X49940Y10000D01*
X25247Y67649D02*
X35618Y57277D01*
X25247Y84201D02*
X25247Y84201D01*
X42990Y57277D02*
X61230Y39038D01*
X60000Y10000D02*
X61230Y11230D01*
X15000Y115000D02*
X25247Y104752D01*
X38132Y57277D02*
X35618Y57277D01*
X38132Y57277D02*
X42990Y57277D01*
X25247Y84201D02*
X25247Y67649D01*
X25247Y84201D02*
X25247Y104752D01*
X61230Y39038D02*
X61230Y11230D01*
G54D16*
X28818Y155000D03*
X46318Y155000D03*
X117500Y75000D03*
X107499Y77499D03*
X58818Y107106D03*
X68818Y112106D03*
X92499Y114999D03*
X96318Y136003D03*
X132500Y84999D03*
X210000Y52500D03*
X117500Y45000D03*
X107500Y24999D03*
X230000Y27499D03*
X240000Y165000D03*
X210000Y169999D03*
X113425Y28503D03*
X113149Y192500D03*
X22500Y154999D03*
X28425Y109814D03*
X39999Y70222D03*
X39999Y61850D03*
G54D18*
X32500Y145000D03*
G54D19*
X162500Y125000D03*
X127500Y65000D03*
G54D20*
X116000Y10000D03*
X126000Y10000D03*
X136000Y10000D03*
X146000Y10000D03*
X156000Y10000D03*
X166000Y10000D03*
X176000Y10000D03*
X186000Y10000D03*
X196000Y10000D03*
X30000Y10000D03*
X40000Y10000D03*
X50000Y10000D03*
X60000Y10000D03*
X70000Y10000D03*
X80000Y10000D03*
X90000Y10000D03*
G54D21*
X15000Y105000D03*
X15000Y115000D03*
X15000Y125000D03*
X15000Y135000D03*
X15000Y145000D03*
G54D22*
X60000Y200000D03*
X50000Y200000D03*
X40000Y200000D03*
X30000Y200000D03*
X20000Y200000D03*
X150000Y200000D03*
X140000Y200000D03*
X130000Y200000D03*
X120000Y200000D03*
X110000Y200000D03*
X100000Y200000D03*
X90000Y200000D03*
X240000Y125000D03*
X230000Y125000D03*
X220000Y125000D03*
X210000Y125000D03*
X200000Y125000D03*
X190000Y125000D03*
X180000Y125000D03*
X240000Y180000D03*
X230000Y180000D03*
X220000Y180000D03*
X210000Y180000D03*
X200000Y180000D03*
X190000Y180000D03*
X180000Y180000D03*
X240000Y152500D03*
X230000Y152500D03*
X220000Y152500D03*
X210000Y152500D03*
X200000Y152500D03*
X190000Y152500D03*
X180000Y152500D03*
X240000Y92500D03*
X230000Y92500D03*
X220000Y92500D03*
X210000Y92500D03*
X200000Y92500D03*
X190000Y92500D03*
X180000Y92500D03*
X240000Y65000D03*
X230000Y65000D03*
X220000Y65000D03*
X210000Y65000D03*
X200000Y65000D03*
X190000Y65000D03*
X180000Y65000D03*
X240000Y37500D03*
X230000Y37500D03*
X220000Y37500D03*
X210000Y37500D03*
X200000Y37500D03*
X190000Y37500D03*
X180000Y37500D03*
G54D23*
X30000Y80000D03*
X30000Y40000D03*
G54D24*
X42500Y175000D03*
X32500Y175000D03*
X42500Y145000D03*
X52500Y145000D03*
X62500Y145000D03*
X72500Y145000D03*
X82500Y145000D03*
X92500Y145000D03*
X102500Y145000D03*
X112500Y145000D03*
X112500Y175000D03*
X102500Y175000D03*
X92500Y175000D03*
X82500Y175000D03*
X72500Y175000D03*
X62500Y175000D03*
X52500Y175000D03*
G54D25*
X92500Y95000D03*
X102500Y95000D03*
X112500Y95000D03*
X122500Y95000D03*
X132500Y95000D03*
X142500Y95000D03*
X152500Y95000D03*
X162500Y95000D03*
X52500Y95000D03*
X62500Y95000D03*
X72500Y95000D03*
X82500Y95000D03*
X152500Y125000D03*
X142500Y125000D03*
X132500Y125000D03*
X122500Y125000D03*
X112500Y125000D03*
X102500Y125000D03*
X92500Y125000D03*
X82500Y125000D03*
X72500Y125000D03*
X62500Y125000D03*
X52500Y125000D03*
X42500Y125000D03*
X32500Y125000D03*
X32500Y95000D03*
X42500Y95000D03*
X117500Y35000D03*
X127500Y35000D03*
X117500Y65000D03*
X107500Y65000D03*
X97500Y65000D03*
X87500Y65000D03*
X77500Y65000D03*
X67500Y65000D03*
X57500Y65000D03*
X47500Y65000D03*
X47500Y35000D03*
X57500Y35000D03*
X67500Y35000D03*
X77500Y35000D03*
X87500Y35000D03*
X97500Y35000D03*
X107500Y35000D03*
G54D26*
X106000Y10000D03*
X20000Y10000D03*
G54D27*
X15000Y95000D03*
G54D28*
X70000Y200000D03*
X160000Y200000D03*
X250000Y125000D03*
X250000Y180000D03*
X250000Y152500D03*
X250000Y92500D03*
X250000Y65000D03*
X250000Y37500D03*
M02*
