%FSLAX35Y35*%
%MOIN*%
%TF.FileFunction,Copper,L2,Bot*%
%ADD10C,0.00591*%
%ADD11C,0.00512*%
%ADD12C,0.00787*%
%ADD13C,0.01000*%
%ADD14C,0.01024*%
%ADD15C,0.01181*%
%ADD16C,0.03937*%
%ADD17C,0.12598*%
%AMR_18*21,1,0.05000,0.09843,0,0,0.000*%
%ADD18R_18*%
%AMR_19*21,1,0.05000,0.09843,0,0,180.000*%
%ADD19R_19*%
%AMOCT_20*4,1,8,0.031496,0.015748,0.015748,0.031496,-0.015748,0.031496,-0.031496,0.015748,-0.031496,-0.015748,-0.015748,-0.031496,0.015748,-0.031496,0.031496,-0.015748,0.031496,0.015748,0.000*%
%ADD20OCT_20*%
%AMOCT_21*4,1,8,0.031496,0.015748,0.015748,0.031496,-0.015748,0.031496,-0.031496,0.015748,-0.031496,-0.015748,-0.015748,-0.031496,0.015748,-0.031496,0.031496,-0.015748,0.031496,0.015748,90.000*%
%ADD21OCT_21*%
%AMOCT_22*4,1,8,0.031496,0.015748,0.015748,0.031496,-0.015748,0.031496,-0.031496,0.015748,-0.031496,-0.015748,-0.015748,-0.031496,0.015748,-0.031496,0.031496,-0.015748,0.031496,0.015748,180.000*%
%ADD22OCT_22*%
%AMOCT_23*4,1,8,0.035433,0.017717,0.017717,0.035433,-0.017717,0.035433,-0.035433,0.017717,-0.035433,-0.017717,-0.017717,-0.035433,0.017717,-0.035433,0.035433,-0.017717,0.035433,0.017717,270.000*%
%ADD23OCT_23*%
%ADD24O,0.05000X0.09843*%
%ADD25O,0.05000X0.09843*%
%AMRR_26*21,1,0.06299,0.05039,0,0,0.000*21,1,0.05039,0.06299,0,0,0.000*1,1,0.01260,0.02520,0.02520*1,1,0.01260,-0.02520,-0.02520*1,1,0.01260,0.02520,-0.02520*1,1,0.01260,-0.02520,0.02520*%
%ADD26RR_26*%
%AMRR_27*21,1,0.06299,0.05039,0,0,90.000*21,1,0.05039,0.06299,0,0,90.000*1,1,0.01260,-0.02520,0.02520*1,1,0.01260,0.02520,-0.02520*1,1,0.01260,0.02520,0.02520*1,1,0.01260,-0.02520,-0.02520*%
%ADD27RR_27*%
%AMRR_28*21,1,0.06299,0.05039,0,0,180.000*21,1,0.05039,0.06299,0,0,180.000*1,1,0.01260,-0.02520,-0.02520*1,1,0.01260,0.02520,0.02520*1,1,0.01260,-0.02520,0.02520*1,1,0.01260,0.02520,-0.02520*%
%ADD28RR_28*%
G54D12*
X28818Y155000D02*
X46318Y155000D01*
X109999Y75000D02*
X107499Y77499D01*
X117500Y75000D02*
X109999Y75000D01*
X110222Y151496D02*
X110222Y151496D01*
X59980Y151496D02*
X59980Y151496D01*
X39094Y151496D02*
X39044Y151544D01*
X162500Y125000D02*
X136003Y151496D01*
X32500Y145000D02*
X39044Y151544D01*
X59980Y151496D02*
X110222Y151496D01*
X136003Y151496D01*
X59980Y151496D02*
X39094Y151496D01*
X152500Y125000D02*
X134606Y107106D01*
X58818Y107106D02*
X134606Y107106D01*
X90222Y112106D02*
X90485Y111843D01*
X142500Y125000D02*
X129343Y111843D01*
X68818Y112106D02*
X90222Y112106D01*
X90485Y111843D02*
X129343Y111843D01*
X132500Y125000D02*
X122499Y114999D01*
X92499Y114999D02*
X122499Y114999D01*
X122500Y125000D02*
X111496Y136003D01*
X96318Y136003D02*
X111496Y136003D01*
X112500Y125000D02*
X105222Y132277D01*
X82500Y145000D02*
X95222Y132277D01*
X105222Y132277D02*
X95222Y132277D01*
X87500Y65000D02*
X107499Y84999D01*
X112499Y84999D02*
X107499Y84999D01*
X132500Y84999D02*
X112499Y84999D01*
X152500Y95000D02*
X146003Y88503D01*
X67500Y65000D02*
X91003Y88503D01*
X106225Y88503D02*
X91003Y88503D01*
X145222Y88503D02*
X106225Y88503D01*
X145222Y88503D02*
X146003Y88503D01*
X250000Y37500D02*
X245636Y33136D01*
X127500Y35000D02*
X129363Y33136D01*
X245636Y33136D01*
X250000Y65000D02*
X250000Y92500D01*
X250000Y37500D02*
X250000Y65000D01*
X153818Y41496D02*
X154183Y41860D01*
X220000Y37500D02*
X215639Y41860D01*
X97500Y35000D02*
X103996Y41496D01*
X153818Y41496D02*
X103996Y41496D01*
X154183Y41860D02*
X215639Y41860D01*
X220000Y65000D02*
X220000Y92500D01*
X87500Y35000D02*
X107499Y54999D01*
X210000Y54999D02*
X210000Y52500D01*
X210000Y54999D02*
X107499Y54999D01*
X210000Y65000D02*
X210000Y54999D01*
X210000Y65000D02*
X210000Y92500D01*
X200000Y65000D02*
X200000Y92500D01*
X240000Y45000D02*
X117500Y45000D01*
X240000Y65000D02*
X240000Y45000D01*
X240000Y65000D02*
X240000Y92500D01*
X240000Y37500D02*
X240000Y45000D01*
X227499Y24999D02*
X230000Y27499D01*
X107500Y24999D02*
X227499Y24999D01*
X230000Y65000D02*
X230000Y92500D01*
X190000Y65000D02*
X182499Y57499D01*
X67500Y35000D02*
X90000Y57500D01*
X182499Y57500D01*
X182499Y57499D02*
X182499Y57500D01*
X190000Y65000D02*
X190000Y92500D01*
X250000Y152500D02*
X245275Y157224D01*
X32500Y175000D02*
X50275Y157224D01*
X245275Y157224D01*
X250000Y152500D02*
X250000Y180000D01*
X250000Y125000D02*
X250000Y152500D01*
X42500Y175000D02*
X52500Y164999D01*
X240000Y165000D02*
X52500Y165000D01*
X52500Y164999D02*
X52500Y165000D01*
X240000Y125000D02*
X240000Y152500D01*
X230000Y180000D02*
X220812Y189187D01*
X52500Y175000D02*
X66687Y189187D01*
X220812Y189187D01*
X230000Y125000D02*
X230000Y152500D01*
X220000Y180000D02*
X212421Y187578D01*
X62500Y175000D02*
X75078Y187578D01*
X212421Y187578D01*
X220000Y125000D02*
X220000Y152500D01*
X142500Y169999D02*
X141377Y168877D01*
X72500Y175000D02*
X78622Y168877D01*
X210000Y169999D02*
X142500Y169999D01*
X141377Y168877D02*
X78622Y168877D01*
X210000Y180000D02*
X210000Y169999D01*
X210000Y125000D02*
X210000Y152500D01*
X200000Y180000D02*
X194009Y185990D01*
X82500Y175000D02*
X93490Y185990D01*
X194009Y185990D01*
X200000Y125000D02*
X200000Y152500D01*
X190000Y180000D02*
X185625Y184375D01*
X92500Y175000D02*
X101875Y184375D01*
X185625Y184375D01*
X190000Y125000D02*
X190000Y152500D01*
X117499Y180000D02*
X112500Y175000D01*
X90000Y200000D02*
X97499Y192500D01*
X47500Y35000D02*
X53996Y28503D01*
X113425Y28503D02*
X53996Y28503D01*
X113149Y192500D02*
X97499Y192500D01*
X180000Y180000D02*
X117499Y180000D01*
X180000Y125000D02*
X180000Y152500D01*
X180000Y92500D02*
X180000Y125000D01*
X180000Y65000D02*
X180000Y92500D01*
X29494Y138897D02*
X22500Y145892D01*
X52500Y125000D02*
X38602Y138897D01*
X22500Y154999D02*
X22500Y145892D01*
X29494Y138897D02*
X38602Y138897D01*
X74856Y117356D02*
X70143Y117356D01*
X35966Y117356D02*
X28425Y109814D01*
X70143Y117356D02*
X70143Y117356D01*
X82500Y125000D02*
X74856Y117356D01*
X70143Y117356D02*
X35966Y117356D01*
X39999Y70222D02*
X62499Y92722D01*
X39062Y61850D02*
X29999Y52787D01*
X62499Y92722D02*
X62500Y95000D01*
X39999Y61850D02*
X39062Y61850D01*
X30000Y50000D02*
X29999Y52787D01*
X30000Y40000D02*
X30000Y50000D01*
X2499Y60877D02*
X16830Y46546D01*
X39999Y10000D02*
X16830Y33169D01*
X15000Y95000D02*
X2499Y82499D01*
X16830Y46546D02*
X16830Y33169D01*
X2499Y82499D02*
X2499Y60877D01*
X40000Y10000D02*
X39999Y10000D01*
G54D16*
X28818Y155000D03*
X46318Y155000D03*
X117500Y75000D03*
X107499Y77499D03*
X58818Y107106D03*
X68818Y112106D03*
X92499Y114999D03*
X96318Y136003D03*
X132500Y84999D03*
X210000Y52500D03*
X117500Y45000D03*
X107500Y24999D03*
X230000Y27499D03*
X240000Y165000D03*
X210000Y169999D03*
X113425Y28503D03*
X113149Y192500D03*
X22500Y154999D03*
X28425Y109814D03*
X39999Y70222D03*
X39999Y61850D03*
G54D18*
X32500Y145000D03*
G54D19*
X162500Y125000D03*
X127500Y65000D03*
G54D20*
X116000Y10000D03*
X126000Y10000D03*
X136000Y10000D03*
X146000Y10000D03*
X156000Y10000D03*
X166000Y10000D03*
X176000Y10000D03*
X186000Y10000D03*
X196000Y10000D03*
X30000Y10000D03*
X40000Y10000D03*
X50000Y10000D03*
X60000Y10000D03*
X70000Y10000D03*
X80000Y10000D03*
X90000Y10000D03*
G54D21*
X15000Y105000D03*
X15000Y115000D03*
X15000Y125000D03*
X15000Y135000D03*
X15000Y145000D03*
G54D22*
X60000Y200000D03*
X50000Y200000D03*
X40000Y200000D03*
X30000Y200000D03*
X20000Y200000D03*
X150000Y200000D03*
X140000Y200000D03*
X130000Y200000D03*
X120000Y200000D03*
X110000Y200000D03*
X100000Y200000D03*
X90000Y200000D03*
X240000Y125000D03*
X230000Y125000D03*
X220000Y125000D03*
X210000Y125000D03*
X200000Y125000D03*
X190000Y125000D03*
X180000Y125000D03*
X240000Y180000D03*
X230000Y180000D03*
X220000Y180000D03*
X210000Y180000D03*
X200000Y180000D03*
X190000Y180000D03*
X180000Y180000D03*
X240000Y152500D03*
X230000Y152500D03*
X220000Y152500D03*
X210000Y152500D03*
X200000Y152500D03*
X190000Y152500D03*
X180000Y152500D03*
X240000Y92500D03*
X230000Y92500D03*
X220000Y92500D03*
X210000Y92500D03*
X200000Y92500D03*
X190000Y92500D03*
X180000Y92500D03*
X240000Y65000D03*
X230000Y65000D03*
X220000Y65000D03*
X210000Y65000D03*
X200000Y65000D03*
X190000Y65000D03*
X180000Y65000D03*
X240000Y37500D03*
X230000Y37500D03*
X220000Y37500D03*
X210000Y37500D03*
X200000Y37500D03*
X190000Y37500D03*
X180000Y37500D03*
G54D23*
X30000Y80000D03*
X30000Y40000D03*
G54D24*
X42500Y175000D03*
X32500Y175000D03*
X42500Y145000D03*
X52500Y145000D03*
X62500Y145000D03*
X72500Y145000D03*
X82500Y145000D03*
X92500Y145000D03*
X102500Y145000D03*
X112500Y145000D03*
X112500Y175000D03*
X102500Y175000D03*
X92500Y175000D03*
X82500Y175000D03*
X72500Y175000D03*
X62500Y175000D03*
X52500Y175000D03*
G54D25*
X92500Y95000D03*
X102500Y95000D03*
X112500Y95000D03*
X122500Y95000D03*
X132500Y95000D03*
X142500Y95000D03*
X152500Y95000D03*
X162500Y95000D03*
X52500Y95000D03*
X62500Y95000D03*
X72500Y95000D03*
X82500Y95000D03*
X152500Y125000D03*
X142500Y125000D03*
X132500Y125000D03*
X122500Y125000D03*
X112500Y125000D03*
X102500Y125000D03*
X92500Y125000D03*
X82500Y125000D03*
X72500Y125000D03*
X62500Y125000D03*
X52500Y125000D03*
X42500Y125000D03*
X32500Y125000D03*
X32500Y95000D03*
X42500Y95000D03*
X117500Y35000D03*
X127500Y35000D03*
X117500Y65000D03*
X107500Y65000D03*
X97500Y65000D03*
X87500Y65000D03*
X77500Y65000D03*
X67500Y65000D03*
X57500Y65000D03*
X47500Y65000D03*
X47500Y35000D03*
X57500Y35000D03*
X67500Y35000D03*
X77500Y35000D03*
X87500Y35000D03*
X97500Y35000D03*
X107500Y35000D03*
G54D26*
X106000Y10000D03*
X20000Y10000D03*
G54D27*
X15000Y95000D03*
G54D28*
X70000Y200000D03*
X160000Y200000D03*
X250000Y125000D03*
X250000Y180000D03*
X250000Y152500D03*
X250000Y92500D03*
X250000Y65000D03*
X250000Y37500D03*
M02*
