%FSLAX35Y35*%
%MOIN*%
%TF.FileFunction,Copper,L1,Top*%
%ADD10C,0.00591*%
%ADD11C,0.00512*%
%ADD12C,0.01024*%
%ADD13C,0.01181*%
%ADD14C,0.01969*%
%ADD15C,0.03937*%
%ADD16C,0.05906*%
%AMOCT_17*4,1,8,0.031496,0.015748,0.015748,0.031496,-0.015748,0.031496,-0.031496,0.015748,-0.031496,-0.015748,-0.015748,-0.031496,0.015748,-0.031496,0.031496,-0.015748,0.031496,0.015748,180.000*%
%ADD17OCT_17*%
%AMOCT_18*4,1,8,0.035433,0.017717,0.017717,0.035433,-0.017717,0.035433,-0.035433,0.017717,-0.035433,-0.017717,-0.017717,-0.035433,0.017717,-0.035433,0.035433,-0.017717,0.035433,0.017717,0.000*%
%ADD18OCT_18*%
%AMOCT_19*4,1,8,0.035433,0.017717,0.017717,0.035433,-0.017717,0.035433,-0.035433,0.017717,-0.035433,-0.017717,-0.017717,-0.035433,0.017717,-0.035433,0.035433,-0.017717,0.035433,0.017717,180.000*%
%ADD19OCT_19*%
%AMOCT_20*4,1,8,0.078740,0.039370,0.039370,0.078740,-0.039370,0.078740,-0.078740,0.039370,-0.078740,-0.039370,-0.039370,-0.078740,0.039370,-0.078740,0.078740,-0.039370,0.078740,0.039370,0.000*%
%ADD20OCT_20*%
%AMRR_21*21,1,0.06299,0.05039,0,0,180.000*21,1,0.05039,0.06299,0,0,180.000*1,1,0.01260,-0.02520,-0.02520*1,1,0.01260,0.02520,0.02520*1,1,0.01260,-0.02520,0.02520*1,1,0.01260,0.02520,-0.02520*%
%ADD21RR_21*%
G54D14*
X99999Y161220D02*
X99999Y161220D01*
X149192Y360000D02*
X127500Y338307D01*
X100000Y318307D02*
X99999Y318307D01*
X99999Y161220D02*
X99999Y318307D01*
X99999Y161220D02*
X100000Y81692D01*
X160000Y360000D02*
X149192Y360000D01*
X97849Y381121D02*
X105000Y373971D01*
X77500Y375000D02*
X83621Y381121D01*
X104999Y358307D02*
X105000Y373971D01*
X104999Y333307D02*
X104999Y358307D01*
X97849Y381121D02*
X83621Y381121D01*
X106355Y325393D02*
X99999Y331749D01*
X120000Y318307D02*
X112913Y325393D01*
X99999Y347499D02*
X99999Y331749D01*
X106355Y325393D02*
X112913Y325393D01*
X90000Y64606D02*
X85000Y59606D01*
X90000Y81692D02*
X90000Y64606D01*
X135000Y42500D02*
X125807Y51692D01*
X80000Y58079D02*
X86386Y51692D01*
X125807Y51692D01*
X80000Y81692D02*
X80000Y58079D01*
X87500Y320963D02*
X87421Y320885D01*
X90000Y318307D02*
X87421Y320885D01*
X87500Y363602D02*
X87500Y320963D01*
X95000Y337500D02*
X92499Y334999D01*
X95000Y357500D02*
X95000Y337500D01*
X190000Y175885D02*
X187500Y173385D01*
X190000Y360000D02*
X190000Y175885D01*
X200000Y360000D02*
X200000Y239999D01*
X175854Y348365D02*
X135472Y307983D01*
X27500Y44114D02*
X95472Y112086D01*
X135472Y112086D02*
X135472Y307983D01*
X27500Y42500D02*
X27500Y44114D01*
X251102Y327499D02*
X251102Y327500D01*
X257500Y377500D02*
X251102Y371102D01*
X251102Y327500D02*
X251102Y371102D01*
X302500Y81692D02*
X298602Y77795D01*
X298602Y69192D02*
X298602Y77795D01*
X282500Y81692D02*
X277500Y76692D01*
X277500Y57500D02*
X277500Y76692D01*
X282499Y370413D02*
X282500Y370413D01*
X282500Y318307D02*
X282500Y370413D01*
X272500Y318307D02*
X272500Y340807D01*
X304999Y149999D02*
X287972Y132972D01*
X172500Y20000D02*
X220472Y67972D01*
X287972Y132972D02*
X287972Y106397D01*
X220472Y106397D02*
X220472Y67972D01*
X326397Y86616D02*
X254029Y14248D01*
X182500Y20000D02*
X188251Y14248D01*
X326397Y261102D02*
X326397Y86616D01*
X254029Y14248D02*
X253227Y14248D01*
X247850Y14248D02*
X253227Y14248D01*
X247850Y14248D02*
X188251Y14248D01*
X252500Y42500D02*
X252500Y29999D01*
X264999Y177500D02*
X255000Y167500D01*
X222500Y20000D02*
X225000Y22500D01*
X264999Y357500D02*
X264999Y177500D01*
X225000Y167500D02*
X225000Y22500D01*
X232500Y229455D02*
X237499Y234455D01*
X297500Y377500D02*
X297500Y364586D01*
X232500Y20000D02*
X232500Y229455D01*
G54D15*
X127500Y338307D03*
X104999Y333307D03*
X99999Y347499D03*
X85000Y59606D03*
X87500Y363602D03*
X92499Y334999D03*
X187500Y173385D03*
X200000Y239999D03*
X95472Y112086D03*
X135472Y112086D03*
X175854Y348365D03*
X251102Y327499D03*
X298602Y69192D03*
X277500Y57500D03*
X282499Y370413D03*
X272500Y340807D03*
X220472Y106397D03*
X287972Y106397D03*
X304999Y149999D03*
X326397Y261102D03*
X252500Y29999D03*
X225000Y167500D03*
X255000Y167500D03*
X264999Y357500D03*
X297500Y364586D03*
X237499Y234455D03*
G54D17*
X220000Y360000D03*
X210000Y360000D03*
X200000Y360000D03*
X190000Y360000D03*
X180000Y360000D03*
X170000Y360000D03*
X160000Y360000D03*
X222500Y20000D03*
X212500Y20000D03*
X202500Y20000D03*
X192500Y20000D03*
X182500Y20000D03*
X172500Y20000D03*
X162500Y20000D03*
G54D18*
X80000Y81692D03*
X90000Y81692D03*
X100000Y81692D03*
X110000Y81692D03*
X120000Y81692D03*
X120000Y318307D03*
X110000Y318307D03*
X100000Y318307D03*
X90000Y318307D03*
X80000Y318307D03*
X37500Y375000D03*
X77500Y375000D03*
X37500Y357500D03*
X77500Y357500D03*
X27500Y42500D03*
X67500Y42500D03*
X272500Y81692D03*
X282500Y81692D03*
X292500Y81692D03*
X302500Y81692D03*
X312500Y81692D03*
X312500Y318307D03*
X302500Y318307D03*
X292500Y318307D03*
X282500Y318307D03*
X272500Y318307D03*
G54D19*
X122500Y42500D03*
X82500Y42500D03*
X175000Y42500D03*
X135000Y42500D03*
X135000Y375000D03*
X95000Y375000D03*
X135000Y357500D03*
X95000Y357500D03*
X297500Y377500D03*
X257500Y377500D03*
X297500Y357500D03*
X257500Y357500D03*
X252500Y42500D03*
X212500Y42500D03*
X312500Y42500D03*
X272500Y42500D03*
X367500Y42500D03*
X327500Y42500D03*
X357500Y377500D03*
X317500Y377500D03*
X357500Y357500D03*
X317500Y357500D03*
G54D20*
X19685Y19685D03*
X374015Y19685D03*
X374015Y374015D03*
X19685Y374015D03*
G54D21*
X230000Y360000D03*
X232500Y20000D03*
M02*
