%FSLAX35Y35*%
%MOIN*%
%TF.FileFunction,Copper,L2,Bot*%
%ADD10C,0.00591*%
%ADD11C,0.00512*%
%ADD12C,0.01024*%
%ADD13C,0.01181*%
%ADD14C,0.01969*%
%ADD15C,0.03937*%
%ADD16C,0.05906*%
%AMOCT_17*4,1,8,0.031496,0.015748,0.015748,0.031496,-0.015748,0.031496,-0.031496,0.015748,-0.031496,-0.015748,-0.015748,-0.031496,0.015748,-0.031496,0.031496,-0.015748,0.031496,0.015748,180.000*%
%ADD17OCT_17*%
%AMOCT_18*4,1,8,0.035433,0.017717,0.017717,0.035433,-0.017717,0.035433,-0.035433,0.017717,-0.035433,-0.017717,-0.017717,-0.035433,0.017717,-0.035433,0.035433,-0.017717,0.035433,0.017717,0.000*%
%ADD18OCT_18*%
%AMOCT_19*4,1,8,0.035433,0.017717,0.017717,0.035433,-0.017717,0.035433,-0.035433,0.017717,-0.035433,-0.017717,-0.017717,-0.035433,0.017717,-0.035433,0.035433,-0.017717,0.035433,0.017717,180.000*%
%ADD19OCT_19*%
%AMOCT_20*4,1,8,0.078740,0.039370,0.039370,0.078740,-0.039370,0.078740,-0.078740,0.039370,-0.078740,-0.039370,-0.039370,-0.078740,0.039370,-0.078740,0.078740,-0.039370,0.078740,0.039370,0.000*%
%ADD20OCT_20*%
%AMRR_21*21,1,0.06299,0.05039,0,0,180.000*21,1,0.05039,0.06299,0,0,180.000*1,1,0.01260,-0.02520,-0.02520*1,1,0.01260,0.02520,0.02520*1,1,0.01260,-0.02520,0.02520*1,1,0.01260,0.02520,-0.02520*%
%ADD21RR_21*%
G54D14*
X100000Y334869D02*
X103437Y338307D01*
X127500Y338307D02*
X103437Y338307D01*
X100000Y318307D02*
X100000Y334869D01*
X110000Y328307D02*
X104999Y333307D01*
X110000Y318307D02*
X110000Y328307D01*
X77500Y357500D02*
X87500Y347499D01*
X99999Y347499D02*
X87500Y347499D01*
X110000Y81692D02*
X103897Y75590D01*
X67500Y58223D02*
X84867Y75590D01*
X103897Y75590D02*
X84867Y75590D01*
X67500Y42500D02*
X67500Y58223D01*
X82500Y42500D02*
X85000Y45000D01*
X85000Y59606D02*
X85000Y45000D01*
X95000Y371102D02*
X87500Y363602D01*
X95000Y375000D02*
X95000Y371102D01*
X80000Y326959D02*
X88040Y334999D01*
X92499Y334999D02*
X88040Y334999D01*
X80000Y318307D02*
X80000Y326959D01*
X170000Y360000D02*
X164277Y354277D01*
X135000Y357500D02*
X138222Y354277D01*
X164277Y354277D02*
X138222Y354277D01*
X180000Y360000D02*
X165000Y375000D01*
X135000Y375000D02*
X165000Y375000D01*
X175000Y42500D02*
X187500Y55000D01*
X187500Y173385D02*
X187500Y55000D01*
X139999Y179999D02*
X200000Y239999D01*
X122500Y42500D02*
X139999Y59999D01*
X139999Y179999D02*
X139999Y59999D01*
X210000Y360000D02*
X198365Y348365D01*
X95472Y112086D02*
X135472Y112086D01*
X175854Y348365D02*
X198365Y348365D01*
X220000Y360000D02*
X202968Y342968D01*
X37500Y357500D02*
X52031Y342968D01*
X202968Y342968D01*
X230000Y360000D02*
X208897Y381102D01*
X37500Y375000D02*
X43602Y381102D01*
X208897Y381102D02*
X43602Y381102D01*
X179326Y25708D02*
X242397Y88779D01*
X162500Y20000D02*
X168208Y25708D01*
X243790Y88779D02*
X242397Y88779D01*
X179326Y25708D02*
X168208Y25708D01*
X292500Y88779D02*
X243790Y88779D01*
X292500Y318307D02*
X292500Y88779D01*
X292500Y81692D02*
X292500Y88779D01*
X302500Y318307D02*
X293307Y327499D01*
X251102Y327499D02*
X293307Y327499D01*
X312500Y318307D02*
X298307Y332499D01*
X257500Y349283D02*
X274283Y332499D01*
X298307Y332499D02*
X274283Y332499D01*
X257500Y357500D02*
X257500Y349283D01*
X239192Y69192D02*
X212500Y42500D01*
X298602Y69192D02*
X239192Y69192D01*
X272500Y52500D02*
X277500Y57500D01*
X272500Y42500D02*
X272500Y52500D01*
X327500Y48297D02*
X300207Y75590D01*
X272500Y81692D02*
X278602Y75590D01*
X300207Y75590D01*
X327500Y42500D02*
X327500Y48297D01*
X317500Y377500D02*
X310413Y370413D01*
X282499Y370413D02*
X310413Y370413D01*
X317500Y357500D02*
X300807Y340807D01*
X272500Y340807D02*
X300807Y340807D01*
X357500Y202500D02*
X304999Y149999D01*
X220472Y106397D02*
X287972Y106397D01*
X357500Y357500D02*
X357500Y202500D01*
X357500Y377500D02*
X326397Y346397D01*
X326397Y261102D02*
X326397Y346397D01*
X367500Y42500D02*
X339248Y14248D01*
X192500Y20000D02*
X198251Y14248D01*
X261748Y14248D02*
X339248Y14248D01*
X261748Y14248D02*
X198251Y14248D01*
X312500Y42500D02*
X306397Y36397D01*
X202500Y20000D02*
X218897Y36397D01*
X306397Y36397D01*
X212500Y20000D02*
X222500Y30000D01*
X252500Y29999D02*
X222500Y29999D01*
X222500Y30000D02*
X222500Y29999D01*
X225000Y167500D02*
X255000Y167500D01*
X297500Y357500D02*
X264999Y357500D01*
X255608Y364586D02*
X237499Y346478D01*
X237499Y234455D02*
X237499Y346478D01*
X297500Y364586D02*
X255608Y364586D01*
G54D15*
X127500Y338307D03*
X104999Y333307D03*
X99999Y347499D03*
X85000Y59606D03*
X87500Y363602D03*
X92499Y334999D03*
X187500Y173385D03*
X200000Y239999D03*
X95472Y112086D03*
X135472Y112086D03*
X175854Y348365D03*
X251102Y327499D03*
X298602Y69192D03*
X277500Y57500D03*
X282499Y370413D03*
X272500Y340807D03*
X220472Y106397D03*
X287972Y106397D03*
X304999Y149999D03*
X326397Y261102D03*
X252500Y29999D03*
X225000Y167500D03*
X255000Y167500D03*
X264999Y357500D03*
X297500Y364586D03*
X237499Y234455D03*
G54D17*
X220000Y360000D03*
X210000Y360000D03*
X200000Y360000D03*
X190000Y360000D03*
X180000Y360000D03*
X170000Y360000D03*
X160000Y360000D03*
X222500Y20000D03*
X212500Y20000D03*
X202500Y20000D03*
X192500Y20000D03*
X182500Y20000D03*
X172500Y20000D03*
X162500Y20000D03*
G54D18*
X80000Y81692D03*
X90000Y81692D03*
X100000Y81692D03*
X110000Y81692D03*
X120000Y81692D03*
X120000Y318307D03*
X110000Y318307D03*
X100000Y318307D03*
X90000Y318307D03*
X80000Y318307D03*
X37500Y375000D03*
X77500Y375000D03*
X37500Y357500D03*
X77500Y357500D03*
X27500Y42500D03*
X67500Y42500D03*
X272500Y81692D03*
X282500Y81692D03*
X292500Y81692D03*
X302500Y81692D03*
X312500Y81692D03*
X312500Y318307D03*
X302500Y318307D03*
X292500Y318307D03*
X282500Y318307D03*
X272500Y318307D03*
G54D19*
X122500Y42500D03*
X82500Y42500D03*
X175000Y42500D03*
X135000Y42500D03*
X135000Y375000D03*
X95000Y375000D03*
X135000Y357500D03*
X95000Y357500D03*
X297500Y377500D03*
X257500Y377500D03*
X297500Y357500D03*
X257500Y357500D03*
X252500Y42500D03*
X212500Y42500D03*
X312500Y42500D03*
X272500Y42500D03*
X367500Y42500D03*
X327500Y42500D03*
X357500Y377500D03*
X317500Y377500D03*
X357500Y357500D03*
X317500Y357500D03*
G54D20*
X19685Y19685D03*
X374015Y19685D03*
X374015Y374015D03*
X19685Y374015D03*
G54D21*
X230000Y360000D03*
X232500Y20000D03*
M02*
